<svg id="Laag_1" data-name="Laag 1" xmlns="http://www.w3.org/2000/svg" viewBox="0 0 483.83 424.8"><defs><style>.cls-1{fill:#1d1d1b;}</style></defs><path class="cls-1" d="M718,678.28,743.89,649a40.43,40.43,0,0,0,15.84,18.88,44.53,44.53,0,0,0,24.32,7q16.37,0,25.89-7.72t9.49-20.81q0-15.39-31.68-30.82l-16.19-8q-28.26-14.53-39.4-29C724.7,568.88,721,557.61,721,544.61c0-18,7.11-32.69,21.33-44.27,31.79-25.68,86.77-24.9,111.87,9.27l-24.5,28.3a34,34,0,0,0-13-14.06c-5.48-3.2-12-4.82-19.55-4.82q-13.92,0-22.38,6.85a22.09,22.09,0,0,0-8.38,18q0,17.13,33.61,31.53l10.25,4.46q26.49,12,40,27.44l-16.14-58.12,44,12q13.51,42.29,27,84.56c50.9-182.29,171-258.3,288.71-317.72h8Q1081.4,395,1009,494q23.24-10.71,52.18-10.71a106.34,106.34,0,0,1,48.64,11.18q22.16,11.12,39.7,33.3L1118.18,551c-7.77-9.7-16-16.75-24.72-21.07s-18.68-6.45-29.9-6.45q-31.92,0-51.43,20.16t-19.5,53.61q0,33,19.4,53.3t50.66,20.31q22.62,0,37-10.71c9.65-7.11,14.47-16.55,14.47-28.23v-2.38h-52.39V591.17H1161l.3,4.16.15,6.85q0,48.89-27.92,79.25t-72.29,30.36q-50.71,0-83.61-32.34-28.32-27.93-32.23-68.85-25.75,65.85-35.76,142.2h-19L863.73,656a59.45,59.45,0,0,1-20.13,37.42q-20.86,18.35-56.15,18.38-25.12,0-42.85-8.58A58.18,58.18,0,0,1,718,678.28Z" transform="translate(-718 -328)"/></svg>