<svg xmlns="http://www.w3.org/2000/svg" width="153" height="56" viewBox="0 0 153 56">
  <g id="Group_1169" data-name="Group 1169" transform="translate(-955 -521)">
    <rect id="Rectangle_1751" data-name="Rectangle 1751" width="9" height="28" rx="4.5" transform="translate(1075 549)" fill="#d1d1d1"/>
    <rect id="Rectangle_1742" data-name="Rectangle 1742" width="9" height="13" rx="4.5" transform="translate(955 564)" fill="#fb7819"/>
    <rect id="Rectangle_1747" data-name="Rectangle 1747" width="9" height="31" rx="4.5" transform="translate(979 546)" fill="#92dbc8"/>
    <rect id="Rectangle_1748" data-name="Rectangle 1748" width="9" height="56" rx="4.5" transform="translate(1003 521)" fill="#92dbc8"/>
    <rect id="Rectangle_1749" data-name="Rectangle 1749" width="9" height="25" rx="4.5" transform="translate(1027 552)" fill="#d1d1d1"/>
    <rect id="Rectangle_1750" data-name="Rectangle 1750" width="9" height="36" rx="4.5" transform="translate(1051 541)" fill="#d1d1d1"/>
    <rect id="Rectangle_1743" data-name="Rectangle 1743" width="9" height="13" rx="4.5" transform="translate(979 564)" fill="#fb7819"/>
    <rect id="Rectangle_1744" data-name="Rectangle 1744" width="9" height="13" rx="4.5" transform="translate(1003 564)" fill="#fb7819"/>
    <rect id="Rectangle_1745" data-name="Rectangle 1745" width="9" height="13" rx="4.5" transform="translate(1027 564)" fill="#fb7819"/>
    <rect id="Rectangle_1746" data-name="Rectangle 1746" width="9" height="13" rx="4.5" transform="translate(1051 564)" fill="#fb7819"/>
    <rect id="Rectangle_1752" data-name="Rectangle 1752" width="9" height="13" rx="4.5" transform="translate(1075 564)" fill="#fb7819"/>
    <rect id="Rectangle_1753" data-name="Rectangle 1753" width="9" height="13" rx="4.5" transform="translate(1099 564)" fill="#fb7819"/>
  </g>
</svg>
