<svg xmlns="http://www.w3.org/2000/svg" width="22.06" height="18.77" viewBox="0 0 22.06 18.77">
  <g id="Group_4" data-name="Group 4" transform="translate(-330.51 -381.29)">
    <path id="Path_1" data-name="Path 1" d="M352.57,400.06H338.52a9.7,9.7,0,0,0,2.59-1.57,3.185,3.185,0,0,0,1.29-2.52,3.438,3.438,0,0,0-1.49-2.39l-.33-.3a1.048,1.048,0,0,1-.37-.52.833.833,0,0,1,.46-.71,5.6,5.6,0,0,1,1.14-.49,8.882,8.882,0,0,0,.9-.36,4.935,4.935,0,0,0,1.54-1.14l3.35,5.58,1.8-3.07Z"/>
    <path id="Path_2" data-name="Path 2" d="M341.41,396.02c-.04-.7-.56-1.16-1.16-1.69-.12-.1-.24-.21-.35-.31a1.965,1.965,0,0,1-.68-1.1,1.776,1.776,0,0,1,.93-1.73,7.059,7.059,0,0,1,1.33-.58,6.193,6.193,0,0,0,.81-.32,4.143,4.143,0,0,0,1.42-1.12l-1.68-2.8v-1.38l2.65-1.71-3.4-1.99v5.19l-4.38,7.9-2.23-2.51-4.16,8.19h4.91a12.772,12.772,0,0,0,5.03-2.32A2.36,2.36,0,0,0,341.41,396.02Zm.62-13.42,1.22.71-1.22.79Z"/>
  </g>
</svg>
