<svg xmlns="http://www.w3.org/2000/svg" width="18.562" height="20.625" viewBox="0 0 18.562 20.625">
  <path id="Vector" d="M18.26,13.708a1.027,1.027,0,0,1,.3.729V16.5a1.031,1.031,0,0,1-1.031,1.031H1.031A1.031,1.031,0,0,1,0,16.5V14.437a1.027,1.027,0,0,1,.3-.729l1.76-1.76V8.25A7.226,7.226,0,0,1,7.368,1.3a2.059,2.059,0,0,1,3.826,0A7.225,7.225,0,0,1,16.5,8.25v3.7ZM16.5,14.864,14.74,13.1a1.027,1.027,0,0,1-.3-.729V8.25a5.156,5.156,0,0,0-10.312,0v4.125a1.027,1.027,0,0,1-.3.729l-1.76,1.76v.6H16.5ZM9.281,20.625a3.073,3.073,0,0,1-2.906-2.062h5.812a3.073,3.073,0,0,1-2.906,2.062Z" fill="#fb7819"/>
</svg>
