<svg id="add-r" xmlns="http://www.w3.org/2000/svg" width="20" height="20" viewBox="0 0 20 20">
  <path id="Path_3" data-name="Path 3" d="M12,6a1,1,0,0,1,1,1v4h4a1,1,0,0,1,0,2H13v4a1,1,0,0,1-2,0V13H7a1,1,0,0,1,0-2h4V7A1,1,0,0,1,12,6Z" transform="translate(-2 -2)"/>
  <path id="Path_4" data-name="Path 4" d="M5,22a3,3,0,0,1-3-3V5A3,3,0,0,1,5,2H19a3,3,0,0,1,3,3V19a3,3,0,0,1-3,3ZM4,19a1,1,0,0,0,1,1H19a1,1,0,0,0,1-1V5a1,1,0,0,0-1-1H5A1,1,0,0,0,4,5Z" transform="translate(-2 -2)" fill-rule="evenodd"/>
</svg>
