<svg xmlns="http://www.w3.org/2000/svg" width="17.558" height="20.248" viewBox="0 0 17.558 20.248">
  <path id="Vector" d="M16.567,7.929a.991.991,0,0,1,.988.91l0,.082v8.071a3.257,3.257,0,0,1-3.132,3.254l-.125,0H3.257A3.257,3.257,0,0,1,0,17.116l0-.125V8.92a.991.991,0,0,1,1.979-.082l0,.082v8.071A1.274,1.274,0,0,0,3.17,18.262l.087,0H14.3a1.274,1.274,0,0,0,1.272-1.187l0-.087V8.92a.991.991,0,0,1,.991-.991ZM8.5.009,8.58,0h.1l.087.007.1.018.039.01a.971.971,0,0,1,.313.151l.068.054L9.34.289l4.405,4.405a.991.991,0,0,1-1.331,1.466L12.343,6.1,9.629,3.382V14.3a.991.991,0,0,1-.91.988l-.081,0a.991.991,0,0,1-.988-.91l0-.081V3.384L4.934,6.1A.991.991,0,0,1,3.6,6.161L3.533,6.1a.991.991,0,0,1-.065-1.331l.065-.071L7.923.3a1.037,1.037,0,0,1,.1-.092L8.089.166A.735.735,0,0,1,8.156.124L8.166.119a.974.974,0,0,1,.329-.11Z" fill="#707070"/>
</svg>
