<svg id="shopping-cart" xmlns="http://www.w3.org/2000/svg" width="19.531" height="18" viewBox="0 0 19.531 18">
  <path id="Path_1153" data-name="Path 1153" d="M5.347,2H1V3.733H3.919L6.431,14.721h.012V15H18.235v-.215l1.989-8.373.306-.945H6.13L5.613,3.2ZM18.223,7.2H6.526l1.387,6.067h8.869Z" transform="translate(-1 -2)" fill="#fb7819" fill-rule="evenodd"/>
  <path id="Path_1154" data-name="Path 1154" d="M10,22a2,2,0,1,0-2-2A2,2,0,0,0,10,22Z" transform="translate(-1.799 -4)" fill="#fb7819"/>
  <path id="Path_1155" data-name="Path 1155" d="M19,20a2,2,0,1,1-2-2A2,2,0,0,1,19,20Z" transform="translate(-2.597 -4)" fill="#fb7819"/>
</svg>
