<svg xmlns="http://www.w3.org/2000/svg" width="18" height="15" viewBox="0 0 18 15">
  <path id="Vector" d="M9,6a3,3,0,1,1,2.121-.879A3,3,0,0,1,9,6ZM5,5a2,2,0,1,1-.586-1.414A2,2,0,0,1,5,5ZM.491,12.326a.78.78,0,0,1-.358-.442A3,3,0,0,1,4.441,8.368a6.484,6.484,0,0,0-1.9,3.959,2.3,2.3,0,0,0,.025.654,4.969,4.969,0,0,1-2.07-.655Zm14.948.655a2.32,2.32,0,0,0,.026-.654,6.484,6.484,0,0,0-1.907-3.96,3,3,0,0,1,4.307,3.517.78.78,0,0,1-.357.442,4.969,4.969,0,0,1-2.07.654ZM17,5a2,2,0,1,1-.586-1.414A2,2,0,0,1,17,5ZM4.3,13.19a.844.844,0,0,1-.277-.71,5,5,0,0,1,9.946,0,.843.843,0,0,1-.277.71,7,7,0,0,1-9.392,0Z"/>
</svg>
