<svg xmlns="http://www.w3.org/2000/svg" version="1.1" xmlns:xlink="http://www.w3.org/1999/xlink" xmlns:svgjs="http://svgjs.dev/svgjs" width="1000" height="1000" viewBox="0 0 1000 1000"><rect width="1000" height="1000" fill="#7fc37e"></rect><g transform="matrix(0.7,0,0,0.7,150.61875715213262,146.08680161943317)"><svg viewBox="0 0 244 247" data-background-color="#7fc37e" preserveAspectRatio="xMidYMid meet" height="1012" width="1000" xmlns="http://www.w3.org/2000/svg" xmlns:xlink="http://www.w3.org/1999/xlink"><defs></defs><g id="tight-bounds" transform="matrix(1,0,0,1,-0.21568106445764101,-0.09999999999999432)"><svg viewBox="0 0 244.43135999999998 247.2" height="247.2" width="244.43135999999998"><g><svg></svg></g><g><svg viewBox="0 0 244.43135999999998 247.2" height="247.2" width="244.43135999999998"><g transform="matrix(1,0,0,1,0,103.37240038523274)"><svg viewBox="0 0 244.43135999999998 40.4551992295345" height="40.4551992295345" width="244.43135999999998"><g><svg viewBox="0 0 244.43135999999998 40.4551992295345" height="40.4551992295345" width="244.43135999999998"><g><svg viewBox="0 0 244.43135999999998 40.4551992295345" height="40.4551992295345" width="244.43135999999998"><g><svg viewBox="0 0 244.43135999999998 40.4551992295345" height="40.4551992295345" width="244.43135999999998"><g><svg viewBox="0 0 244.43135999999998 40.4551992295345" height="40.4551992295345" width="244.43135999999998"><g><svg viewBox="0 0 244.43135999999998 40.4551992295345" height="40.4551992295345" width="244.43135999999998"><g transform="matrix(1,0,0,1,0,0)"><svg width="244.43135999999998" viewBox="2 -36.75 280.30999755859375 46.400001525878906" height="40.4551992295345" data-palette-color="#fefee2"><path d="M5.75 0L2 0 2-34.1Q2-34.1 2.13-34.55 2.25-35 2.85-35L2.85-35 14.85-35Q14.85-33.15 14.83-32.33 14.8-31.5 14.63-31.3 14.45-31.1 14-31.1L14-31.1 6.55-31.1 6.55-0.9Q6.55-0.9 6.48-0.45 6.4 0 5.75 0L5.75 0ZM12.75-16.95L2.5-16.95 2.5-21.1 13.6-21.1Q13.6-18.55 13.5-17.75 13.4-16.95 12.75-16.95L12.75-16.95ZM17.45 0L17.45 0 17.45-34.7Q17.45-35.75 17.8-36.18 18.15-36.6 19.15-36.68 20.15-36.75 22-36.75L22-36.75 22-0.9Q22-0.45 21.8-0.28 21.6-0.1 20.65-0.05 19.7 0 17.45 0ZM33.2 0.5L33.2 0.5Q31.25 0.5 29.77 0.03 28.3-0.45 27.3-1.8 26.3-3.15 25.82-5.73 25.35-8.3 25.35-12.5L25.35-12.5Q25.35-19.35 27.55-22.43 29.75-25.5 33.65-25.5L33.65-25.5Q36.3-25.5 38.02-24.43 39.75-23.35 40.57-20.55 41.4-17.75 41.4-12.65L41.4-12.65Q41.4-5.6 39.32-2.55 37.25 0.5 33.2 0.5ZM33.34-3.35L33.34-3.35Q34.25-3.35 34.92-4.05 35.59-4.75 36.02-6.75 36.45-8.75 36.45-12.6L36.45-12.6Q36.45-16.45 36.15-18.4 35.84-20.35 35.2-21 34.55-21.65 33.5-21.65L33.5-21.65Q32.55-21.65 31.82-20.95 31.1-20.25 30.7-18.25 30.3-16.25 30.3-12.45L30.3-12.45Q30.3-9.45 30.5-7.6 30.7-5.75 31.07-4.85 31.45-3.95 32.02-3.65 32.59-3.35 33.34-3.35ZM52.09 0.5L52.09 0.5Q49.14 0.5 47.52-0.4 45.89-1.3 45.24-3.08 44.59-4.85 44.59-7.55L44.59-7.55 44.59-24.1Q44.59-24.55 44.79-24.73 44.99-24.9 45.99-24.95 46.99-25 49.34-25L49.34-25 49.34-7.2Q49.34-5.85 49.57-5.03 49.79-4.2 50.39-3.83 50.99-3.45 52.14-3.45L52.14-3.45Q52.74-3.45 53.54-3.63 54.34-3.8 54.99-4.3L54.99-4.3 54.99-24.1Q54.99-24.55 55.19-24.73 55.39-24.9 56.34-24.95 57.29-25 59.54-25L59.54-25 59.54-1.35Q58.19-0.6 56.19-0.05 54.19 0.5 52.09 0.5ZM63.59 0L63.59 0 63.59-23.25Q64.99-24.25 66.74-24.88 68.49-25.5 70.44-25.5L70.44-25.5Q72.44-25.5 73.17-24.95 73.89-24.4 73.89-23.25L73.89-23.25Q73.89-22.85 73.79-22.1 73.69-21.35 73.39-20.6L73.39-20.6Q72.89-20.85 72.34-20.98 71.79-21.1 71.19-21.1L71.19-21.1Q70.49-21.1 69.72-20.85 68.94-20.6 68.29-20.1L68.29-20.1 68.24-0.9Q68.24-0.45 68.04-0.28 67.84-0.1 66.87-0.05 65.89 0 63.59 0ZM89.84-13.95L85.44-13.95Q84.64-13.95 84.56-14.23 84.49-14.5 84.49-15.15L84.49-15.15 84.49-34.05Q84.49-34.15 84.54-34.58 84.59-35 85.19-35L85.19-35 89.74-35Q92.89-35 94.99-34.02 97.09-33.05 98.11-30.85 99.14-28.65 99.14-25L99.14-25Q99.14-21.8 98.36-19.68 97.59-17.55 96.29-16.3 94.99-15.05 93.34-14.5 91.69-13.95 89.84-13.95L89.84-13.95ZM83.99 0L83.99 0 83.99-34.1Q83.99-34.6 84.16-34.8 84.34-35 84.89-35L84.89-35 87.69-35Q88.34-35 88.44-34.55 88.54-34.1 88.54-34.1L88.54-34.1 88.54-0.9Q88.54-0.45 88.34-0.28 88.14-0.1 87.21-0.05 86.29 0 83.99 0ZM88.49-31L88.49-18.2 90.34-18.2Q91.54-18.2 92.34-18.88 93.14-19.55 93.59-21.15 94.04-22.75 94.04-25.5L94.04-25.5Q94.04-27.25 93.71-28.48 93.39-29.7 92.66-30.35 91.94-31 90.64-31L90.64-31 88.49-31ZM107.98 0.5L107.98 0.5Q106.03 0.5 104.56 0.03 103.08-0.45 102.08-1.8 101.08-3.15 100.61-5.73 100.13-8.3 100.13-12.5L100.13-12.5Q100.13-19.35 102.33-22.43 104.53-25.5 108.43-25.5L108.43-25.5Q111.08-25.5 112.81-24.43 114.53-23.35 115.36-20.55 116.18-17.75 116.18-12.65L116.18-12.65Q116.18-5.6 114.11-2.55 112.03 0.5 107.98 0.5ZM108.13-3.35L108.13-3.35Q109.03-3.35 109.71-4.05 110.38-4.75 110.81-6.75 111.23-8.75 111.23-12.6L111.23-12.6Q111.23-16.45 110.93-18.4 110.63-20.35 109.98-21 109.33-21.65 108.28-21.65L108.28-21.65Q107.33-21.65 106.61-20.95 105.88-20.25 105.48-18.25 105.08-16.25 105.08-12.45L105.08-12.45Q105.08-9.45 105.28-7.6 105.48-5.75 105.86-4.85 106.23-3.95 106.81-3.65 107.38-3.35 108.13-3.35ZM134.63 0.3L134.63 0.3Q133.98 0.3 133.26-0.3 132.53-0.9 132.28-2.3L132.28-2.3 131.63-5.65Q131.33-7.35 131.06-9.33 130.78-11.3 130.58-13.25 130.38-15.2 130.26-16.8 130.13-18.4 130.06-19.35 129.98-20.3 129.98-20.3L129.98-20.3 129.33-22.75Q129.28-23.2 129.56-23.8 129.83-24.4 130.28-24.4L130.28-24.4 132.53-24.4 134.43-13.65Q134.68-12.45 134.88-10.98 135.08-9.5 135.26-8.18 135.43-6.85 135.53-6 135.63-5.15 135.63-5.15L135.63-5.15 135.93-5.15Q136.08-6.75 136.26-8.85 136.43-10.95 136.71-13.15 136.98-15.35 137.28-17.25L137.28-17.25 138.38-24.05Q138.48-24.5 138.71-24.7 138.93-24.9 139.86-24.95 140.78-25 142.83-25L142.83-25Q142.83-25 142.56-23.65 142.28-22.3 141.83-20.05 141.38-17.8 140.86-15.13 140.33-12.45 139.78-9.78 139.23-7.1 138.76-4.85 138.28-2.6 137.96-1.25 137.63 0.1 137.58 0.1L137.58 0.1Q137.58 0.1 136.86 0.2 136.13 0.3 134.63 0.3ZM123.83 0.3L123.83 0.3Q123.08 0.3 122.63-0.43 122.18-1.15 121.93-2.15L121.93-2.15Q121.58-3.7 121.11-5.88 120.63-8.05 120.11-10.53 119.58-13 119.06-15.4 118.53-17.8 118.13-19.75 117.73-21.7 117.48-22.9 117.23-24.1 117.23-24.1L117.23-24.1Q117.18-24.55 117.46-24.73 117.73-24.9 118.81-24.95 119.88-25 122.28-25L122.28-25 123.58-17.25Q123.93-15.25 124.21-13.13 124.48-11 124.68-9.2 124.88-7.4 125.01-6.28 125.13-5.15 125.13-5.15L125.13-5.15 125.43-5.15Q125.53-6 125.68-7.45 125.83-8.9 126.08-10.58 126.33-12.25 126.53-13.7L126.53-13.7 128.03-23.4Q128.13-24 128.38-24.2 128.63-24.4 129.53-24.4L129.53-24.4 130.73-24.4Q131.33-24.4 131.23-24.1 131.13-23.8 130.88-23.43 130.63-23.05 130.58-22.75L130.58-22.75 130.48-20.4Q130.48-20.4 130.41-19.43 130.33-18.45 130.21-16.82 130.08-15.2 129.86-13.25 129.63-11.3 129.38-9.33 129.13-7.35 128.78-5.6L128.78-5.6 127.73 0.1Q127.73 0.1 127.08 0.15 126.43 0.2 125.51 0.25 124.58 0.3 123.83 0.3ZM151.88 0.5L151.88 0.5Q150.13 0.5 148.68 0 147.23-0.5 146.18-1.75 145.13-3 144.53-5.3 143.93-7.6 143.93-11.25L143.93-11.25Q143.93-15.9 144.68-18.73 145.43-21.55 146.68-23 147.93-24.45 149.53-24.98 151.13-25.5 152.78-25.5L152.78-25.5Q155.88-25.5 157.53-23.53 159.18-21.55 159.18-17.45L159.18-17.45Q159.18-15.7 159.03-13.9 158.88-12.1 158.53-10.75L158.53-10.75Q156.88-10.4 154.85-10.23 152.83-10.05 150.95-10 149.08-9.95 147.88-9.95 146.68-9.95 146.68-9.95L146.68-9.95 146.78-13.65Q146.78-13.65 147.63-13.63 148.48-13.6 149.78-13.6 151.08-13.6 152.35-13.73 153.63-13.85 154.48-14.1L154.48-14.1Q154.63-14.75 154.68-15.53 154.73-16.3 154.73-17L154.73-17Q154.68-19.6 154.15-20.55 153.63-21.5 152.23-21.5L152.23-21.5Q151.43-21.5 150.78-21 150.13-20.5 149.65-19.35 149.18-18.2 148.93-16.28 148.68-14.35 148.68-11.45L148.68-11.45Q148.68-9.3 148.9-7.85 149.13-6.4 149.6-5.55 150.08-4.7 150.9-4.33 151.73-3.95 152.88-3.95L152.88-3.95Q154.33-3.95 155.75-4.35 157.18-4.75 158.43-5.45L158.43-5.45Q158.68-4.8 158.75-3.93 158.83-3.05 158.83-2.35L158.83-2.35Q158.83-1.5 157.88-0.85 156.93-0.2 155.35 0.15 153.78 0.5 151.88 0.5ZM162.43 0L162.43 0 162.43-23.25Q163.83-24.25 165.58-24.88 167.33-25.5 169.28-25.5L169.28-25.5Q171.28-25.5 172-24.95 172.73-24.4 172.73-23.25L172.73-23.25Q172.73-22.85 172.63-22.1 172.53-21.35 172.23-20.6L172.23-20.6Q171.73-20.85 171.18-20.98 170.63-21.1 170.03-21.1L170.03-21.1Q169.33-21.1 168.55-20.85 167.78-20.6 167.13-20.1L167.13-20.1 167.08-0.9Q167.08-0.45 166.88-0.28 166.68-0.1 165.7-0.05 164.73 0 162.43 0ZM189.22 0L182.82 0 182.82-34.05Q182.82-34.5 183.1-34.75 183.37-35 184.17-35L184.17-35 189.12-35Q190.67-35 192.15-34.68 193.62-34.35 194.85-33.52 196.07-32.7 196.8-31.18 197.52-29.65 197.52-27.25L197.52-27.25Q197.52-24.55 196.77-22.83 196.02-21.1 194.95-20.23 193.87-19.35 192.82-19.2L192.82-19.2Q193.67-19.1 194.67-18.8 195.67-18.5 196.57-17.73 197.47-16.95 198.07-15.55 198.67-14.15 198.67-11.9L198.67-11.9Q198.67-9.55 198.22-7.68 197.77-5.8 196.95-4.38 196.12-2.95 194.97-1.98 193.82-1 192.37-0.5 190.92 0 189.22 0L189.22 0ZM187.47-17L187.47-4 189.32-4Q190.12-4 190.82-4.45 191.52-4.9 192.07-5.83 192.62-6.75 192.92-8.15 193.22-9.55 193.22-11.5L193.22-11.5Q193.22-13.35 192.95-14.45 192.67-15.55 192.17-16.1 191.67-16.65 190.97-16.82 190.27-17 189.37-17L189.37-17 187.47-17ZM187.47-31L187.47-20.85 189.42-20.85Q190.32-20.85 191.02-21.48 191.72-22.1 192.1-23.3 192.47-24.5 192.47-26.3L192.47-26.3Q192.47-28.25 192.05-29.28 191.62-30.3 190.95-30.65 190.27-31 189.47-31L189.47-31 187.47-31ZM207.82 0.5L207.82 0.5Q206.42 0.5 205.14 0.28 203.87 0.05 202.84-0.73 201.82-1.5 201.24-3.05 200.67-4.6 200.67-7.15L200.67-7.15Q200.67-9.75 201.19-11.38 201.72-13 202.64-13.88 203.57-14.75 204.69-15.08 205.82-15.4 207.02-15.4L207.02-15.4Q207.77-15.4 208.79-15.25 209.82-15.1 210.52-14.7L210.52-14.7Q210.52-14.7 210.52-15.35 210.52-16 210.52-16.9 210.52-17.8 210.52-18.5L210.52-18.5Q210.52-19.5 210.22-20.05 209.92-20.6 209.32-20.85 208.72-21.1 207.77-21.1L207.77-21.1Q206.02-21.1 204.27-20.78 202.52-20.45 201.37-20L201.37-20Q200.97-20.7 200.84-21.4 200.72-22.1 200.72-22.6L200.72-22.6Q200.72-23 200.87-23.45 201.02-23.9 201.32-24.1L201.32-24.1Q201.92-24.5 203.97-25 206.02-25.5 208.92-25.5L208.92-25.5Q212.22-25.5 213.67-24.15 215.12-22.8 215.12-19.4L215.12-19.4 215.12-16.85Q215.12-14 215.09-11.08 215.07-8.15 215.02-5.6 214.97-3.05 214.87-1.15L214.87-1.15Q213.77-0.5 211.97 0 210.17 0.5 207.82 0.5ZM208.17-3.3L208.17-3.3Q208.87-3.3 209.49-3.53 210.12-3.75 210.37-4L210.37-4Q210.47-4.75 210.49-6.05 210.52-7.35 210.52-8.83 210.52-10.3 210.52-11.55L210.52-11.55Q210.12-11.8 209.54-11.9 208.97-12 208.52-12L208.52-12Q207.92-12 207.34-11.83 206.77-11.65 206.34-11.13 205.92-10.6 205.69-9.7 205.47-8.8 205.47-7.3L205.47-7.3Q205.47-6.1 205.64-5.33 205.82-4.55 206.17-4.1 206.52-3.65 207.04-3.48 207.57-3.3 208.17-3.3ZM218.92 0L218.92 0 218.92-34.7Q218.92-35.75 219.27-36.18 219.62-36.6 220.62-36.68 221.62-36.75 223.52-36.75L223.52-36.75 223.52-23.5Q224.67-24.4 226.27-24.95 227.87-25.5 229.42-25.5L229.42-25.5Q231.12-25.5 232.04-24.88 232.97-24.25 233.32-23.28 233.67-22.3 233.67-21.2L233.67-21.2Q233.67-19.7 233.27-18.45 232.87-17.2 232.27-16.25 231.67-15.3 231.04-14.63 230.42-13.95 229.92-13.55L229.92-13.55Q231.17-12.85 232.12-11.63 233.07-10.4 233.69-8.68 234.32-6.95 234.42-4.75L234.42-4.75Q234.47-3.85 234.47-2.85 234.47-1.85 234.32-0.8L234.32-0.8Q234.27-0.4 234.04-0.23 233.82-0.05 232.74-0.03 231.67 0 229.12 0L229.12 0Q229.32-1.65 229.32-3.1 229.32-4.55 229.17-5.8L229.17-5.8Q229.02-7.25 228.67-8.33 228.32-9.4 227.84-10.13 227.37-10.85 226.77-11.13 226.17-11.4 225.42-11.2L225.42-11.2Q225.02-11.15 224.57-10.93 224.12-10.7 223.82-10.53 223.52-10.35 223.52-10.35L223.52-10.35 223.52-0.9Q223.52-0.45 223.34-0.28 223.17-0.1 222.19-0.05 221.22 0 218.92 0ZM223.52-19.35L223.52-13.55Q225.02-14.2 226.17-15.05 227.32-15.9 227.94-17.03 228.57-18.15 228.57-19.6L228.57-19.6Q228.57-21.4 227.02-21.4L227.02-21.4Q226.12-21.4 225.22-20.88 224.32-20.35 223.52-19.35L223.52-19.35ZM244.01 0.5L244.01 0.5Q242.26 0.5 240.81 0 239.36-0.5 238.31-1.75 237.26-3 236.66-5.3 236.06-7.6 236.06-11.25L236.06-11.25Q236.06-15.9 236.81-18.73 237.56-21.55 238.81-23 240.06-24.45 241.66-24.98 243.26-25.5 244.91-25.5L244.91-25.5Q248.01-25.5 249.66-23.53 251.31-21.55 251.31-17.45L251.31-17.45Q251.31-15.7 251.16-13.9 251.01-12.1 250.66-10.75L250.66-10.75Q249.01-10.4 246.99-10.23 244.96-10.05 243.09-10 241.21-9.95 240.01-9.95 238.81-9.95 238.81-9.95L238.81-9.95 238.91-13.65Q238.91-13.65 239.76-13.63 240.61-13.6 241.91-13.6 243.21-13.6 244.49-13.73 245.76-13.85 246.61-14.1L246.61-14.1Q246.76-14.75 246.81-15.53 246.86-16.3 246.86-17L246.86-17Q246.81-19.6 246.29-20.55 245.76-21.5 244.36-21.5L244.36-21.5Q243.56-21.5 242.91-21 242.26-20.5 241.79-19.35 241.31-18.2 241.06-16.28 240.81-14.35 240.81-11.45L240.81-11.45Q240.81-9.3 241.04-7.85 241.26-6.4 241.74-5.55 242.21-4.7 243.04-4.33 243.86-3.95 245.01-3.95L245.01-3.95Q246.46-3.95 247.89-4.35 249.31-4.75 250.56-5.45L250.56-5.45Q250.81-4.8 250.89-3.93 250.96-3.05 250.96-2.35L250.96-2.35Q250.96-1.5 250.01-0.85 249.06-0.2 247.49 0.15 245.91 0.5 244.01 0.5ZM254.56 0L254.56 0 254.56-23.25Q255.96-24.25 257.71-24.88 259.46-25.5 261.41-25.5L261.41-25.5Q263.41-25.5 264.14-24.95 264.86-24.4 264.86-23.25L264.86-23.25Q264.86-22.85 264.76-22.1 264.66-21.35 264.36-20.6L264.36-20.6Q263.86-20.85 263.31-20.98 262.76-21.1 262.16-21.1L262.16-21.1Q261.46-21.1 260.69-20.85 259.91-20.6 259.26-20.1L259.26-20.1 259.21-0.9Q259.21-0.45 259.01-0.28 258.81-0.1 257.84-0.05 256.86 0 254.56 0ZM269.36 9.65L269.36 9.65Q266.91 9.65 265.98 9.05 265.06 8.45 265.06 7.5L265.06 7.5Q265.06 6.9 265.23 6.18 265.41 5.45 265.71 5L265.71 5Q266.21 5.3 267.11 5.53 268.01 5.75 268.96 5.75L268.96 5.75Q270.06 5.75 270.91 4.7 271.76 3.65 272.21 0.8L272.21 0.8 266.41-23.75Q266.26-24.4 266.38-24.65 266.51-24.9 267.51-24.95 268.51-25 270.86-25L270.86-25 273.16-14.15Q273.46-12.6 273.68-11 273.91-9.4 274.08-8 274.26-6.6 274.36-5.75 274.46-4.9 274.46-4.9L274.46-4.9Q274.46-4.9 274.53-5.75 274.61-6.6 274.78-7.98 274.96-9.35 275.18-10.98 275.41-12.6 275.61-14.2L275.61-14.2 277.41-23.7Q277.51-24.35 277.76-24.6 278.01-24.85 279.01-24.93 280.01-25 282.31-25L282.31-25 276.36 1.3Q275.61 4.45 274.71 6.3 273.81 8.15 272.53 8.9 271.26 9.65 269.36 9.65Z" opacity="1" transform="matrix(1,0,0,1,0,0)" fill="#fefee2" class="undefined-text-0" data-fill-palette-color="primary" id="text-0"></path></svg></g></svg></g></svg></g></svg></g><g></g></svg></g></svg></g></svg></g><path d="M0 97.372L0 1 244.431 1 244.431 97.372 240.783 97.372 240.783 4.648 3.648 4.648 3.648 97.372 0 97.372M0 149.828L0 246.2 244.431 246.2 244.431 149.828 240.783 149.828 240.783 242.552 3.648 242.552 3.648 149.828 0 149.828" fill="#fefee2" stroke="transparent" data-fill-palette-color="primary"></path></svg></g></svg><rect width="244.43135999999998" height="247.2" fill="none" stroke="none" visibility="hidden"></rect></g></svg></g></svg>